<svg width="40" height="41" viewBox="0 0 40 41" fill="none" xmlns="http://www.w3.org/2000/svg">
<path fill-rule="evenodd" clip-rule="evenodd" d="M26.6663 15.4999C26.6663 17.268 25.964 18.9637 24.7137 20.214C23.4635 21.4642 21.7678 22.1666 19.9997 22.1666C18.2316 22.1666 16.5359 21.4642 15.2856 20.214C14.0354 18.9637 13.333 17.268 13.333 15.4999C13.333 13.7318 14.0354 12.0361 15.2856 10.7859C16.5359 9.53563 18.2316 8.83325 19.9997 8.83325C21.7678 8.83325 23.4635 9.53563 24.7137 10.7859C25.964 12.0361 26.6663 13.7318 26.6663 15.4999ZM23.333 15.4999C23.333 16.384 22.9818 17.2318 22.3567 17.8569C21.7316 18.4821 20.8837 18.8333 19.9997 18.8333C19.1156 18.8333 18.2678 18.4821 17.6427 17.8569C17.0175 17.2318 16.6663 16.384 16.6663 15.4999C16.6663 14.6159 17.0175 13.768 17.6427 13.1429C18.2678 12.5178 19.1156 12.1666 19.9997 12.1666C20.8837 12.1666 21.7316 12.5178 22.3567 13.1429C22.9818 13.768 23.333 14.6159 23.333 15.4999Z" fill="#EF62A3"/>
<path fill-rule="evenodd" clip-rule="evenodd" d="M19.9998 2.16663C9.87484 2.16663 1.6665 10.375 1.6665 20.5C1.6665 30.625 9.87484 38.8333 19.9998 38.8333C30.1248 38.8333 38.3332 30.625 38.3332 20.5C38.3332 10.375 30.1248 2.16663 19.9998 2.16663ZM4.99984 20.5C4.99984 23.9833 6.18817 27.19 8.17984 29.7366C9.57855 27.8998 11.383 26.4112 13.4522 25.3871C15.5214 24.3631 17.7994 23.8313 20.1082 23.8333C22.3871 23.8311 24.6364 24.3492 26.6847 25.3479C28.7331 26.3467 30.5264 27.7998 31.9282 29.5966C33.3722 27.7026 34.3446 25.492 34.7647 23.1476C35.1848 20.8032 35.0406 18.3925 34.344 16.1149C33.6474 13.8373 32.4185 11.7584 30.759 10.05C29.0994 8.34167 27.0569 7.05306 24.8005 6.29081C22.544 5.52856 20.1385 5.31458 17.7829 5.66658C15.4274 6.01858 13.1895 6.92644 11.2545 8.31505C9.31941 9.70365 7.74286 11.5331 6.65522 13.652C5.56758 15.7708 5.00014 18.1182 4.99984 20.5ZM19.9998 35.5C16.5564 35.5051 13.2169 34.3205 10.5465 32.1466C11.6214 30.6078 13.0521 29.3515 14.7168 28.4844C16.3816 27.6174 18.2311 27.1653 20.1082 27.1666C21.9618 27.1651 23.789 27.6059 25.438 28.4523C27.0871 29.2987 28.5104 30.5264 29.5898 32.0333C26.8987 34.2778 23.5041 35.5049 19.9998 35.5Z" fill="#EF62A3"/>
</svg>
